[img]http://img594.imageshack.us/img594/7582/abduction.jpg[/img]
[code]
Abduction 2011 TS XViD - ILLUMINATI                                  


IMDB: http://www.imdb.com/title/tt1600195/           RELEASE DATE: 09/23/11                        
SIZE:   1.37 gb                                                                   LENGTH: 1H 37MN
SOURCE: V: RUSSIAN CAMRiP A: Uncle Fester                 HEIGHT: 352
SUBTITLES: NONE                                                              WIDTH: 720


INFO:
Video
ID                               : 0
Format                           : MPEG-4 Visual
Format profile                   : Advanced Simple@L5
Format settings, BVOP            : 2
Format settings, QPel            : No
Format settings, GMC             : No warppoints
Format settings, Matrix          : Default (H.263)
Muxing mode                      : Packed bitstream
Codec ID                         : XVID
Codec ID/Hint                    : XviD
Duration                         : 1h 37mn
Bit rate                         : 1 881 Kbps
Width                            : 720 pixels
Height                           : 352 pixels
Display aspect ratio             : 2.045
Frame rate                       : 25.000 fps
Color space                      : YUV
Chroma subsampling               : 4:2:0
Bit depth                        : 8 bits
Scan type                        : Progressive
Compression mode                 : Lossy
Bits/(Pixel*Frame)               : 0.297
Stream size                      : 1.28 GiB (93%)
Writing library                  : XviD 64

Audio
ID                               : 1
Format                           : MPEG Audio
Format version                   : Version 1
Format profile                   : Layer 3
Mode                             : Joint stereo
Mode extension                   : MS Stereo
Codec ID                         : 55
Codec ID/Hint                    : MP3
Duration                         : 1h 37mn
Bit rate mode                    : Constant
Bit rate                         : 128 Kbps
Channel(s)                       : 2 channels
Sampling rate                    : 44.1 KHz
Compression mode                 : Lossy
Stream size                      : 89.0 MiB (6%)
Alignment                        : Split accross interleaves
Interleave, duration             : 40 ms (1.00 video frame)

Plot:
A thriller centered on a young man who sets out to uncover the truth about his life after finding his baby photo on a missing persons website.

NOTES:
Sharpened up the video and adjusted the RGB
Audio is very nice LiNE synced and remuxed

[/code]
Screens:
[img]http://img705.imageshack.us/img705/6592/31625336.png[/img]
[img]http://img838.imageshack.us/img838/4985/77213091.png[/img]
[img]http://img94.imageshack.us/img94/5830/46987254.png[/img]
[img]http://img84.imageshack.us/img84/261/45514832.png[/img]
[img]http://img717.imageshack.us/img717/7627/45822681.png[/img]